<svg width="40" height="38" viewBox="0 0 40 38" fill="none" xmlns="http://www.w3.org/2000/svg">
<path d="M39.8837 3.90096C27.9453 -0.343098 14.9689 -0.693636 2.81875 2.89971C2.33579 3.01528 1.88107 3.22698 1.48175 3.52218C1.08242 3.81738 0.746673 4.19002 0.49455 4.61785C0.242426 5.04567 0.079097 5.51992 0.0143143 6.01227C-0.0504683 6.50462 -0.0153763 7.00497 0.117495 7.48346C0.782495 10.1522 1.7525 13.2185 2.9175 15.9985C2.9375 16.0635 2.96875 16.0322 2.96875 15.9672C2.8 14.6635 3.8025 13.0172 5.76874 12.4185C15.2181 9.41117 25.3873 9.5458 34.7537 12.8022C35.0992 12.9204 35.4649 12.9682 35.8291 12.9428C36.1933 12.9174 36.5488 12.8193 36.8746 12.6543C37.2003 12.4894 37.4897 12.2609 37.7257 11.9823C37.9617 11.7037 38.1396 11.3806 38.2487 11.0322C39.4137 7.28221 39.8837 4.73596 40 4.09846C40.02 3.97971 39.915 3.93346 39.8837 3.90096ZM11.08 12.151C9.64875 12.4497 7.66999 12.9197 6.185 13.4122C3.21625 14.436 3.35375 18.0485 4.935 19.201C5.05125 18.531 5.76875 17.6197 6.56875 17.3122C9.5325 16.1472 12.715 15.451 15.9325 15.1635C14.2975 14.4997 12.7025 13.5485 11.1012 12.1497L11.08 12.151ZM34.7137 19.3835C30.4486 17.3795 25.825 16.2508 21.1162 16.0642C16.4075 15.8777 11.7091 16.6369 7.29875 18.2972C5.885 18.831 5 20.551 5.885 22.1835C7.43105 24.9786 9.1856 27.6533 11.1337 30.1847C10.8537 29.2147 11.3487 27.4185 13.2487 26.831C18.5037 25.216 24.0175 25.901 27.6825 27.3847C28.7175 27.801 30.1825 27.5485 31.0037 26.3185C32.4043 24.161 33.6781 21.9239 34.8187 19.6185C34.87 19.5147 34.8187 19.4372 34.7137 19.3835ZM26.1987 32.3335C24.6615 31.5572 23.2556 30.5445 22.0325 29.3322C21.4662 28.766 20.6325 27.9522 19.7537 26.9822C17.7475 26.9822 15.8 27.1835 13.7175 27.8485C11.7837 28.4535 11.6025 30.6872 12.4487 31.8522C13.88 33.636 14.8837 34.5985 16.485 36.2535C17.3336 37.0858 18.4731 37.5546 19.6618 37.5605C20.8504 37.5663 21.9945 37.1087 22.8512 36.2847C24.1012 35.0347 24.87 34.201 26.2825 32.5997C26.3662 32.5147 26.335 32.366 26.1987 32.3335Z" fill="#D27C2C"/>
</svg>
